<svg xmlns="http://www.w3.org/2000/svg" style="vector-effect: non-scaling-stroke;" stroke="null">
 <!-- Created with Method Draw - http://github.com/duopixel/Method-Draw/ -->
 <g stroke="null">
  <title stroke="null">background</title>
  <rect stroke="null" fill="none" id="canvas_background" height="252" width="782" y="-1" x="-1"/>
 </g>
 <g stroke="null">
  <title stroke="null">Layer 1</title>
  <path d="m259.863953,319.319733c0,0 0,0 0,0l0,0" id="svg_5" stroke-width="1.5" stroke="none" fill="none"/>
  <polyline stroke-linecap="round" id="svg_7" points="259.1836853027344,317.9591979980469 259.1836853027344,317.9591979980469 " stroke-width="1.5" stroke="none" fill="none"/>
  <path id="svg_14" d="m169.251701,467.891156" opacity="1" fill-opacity="null" stroke-opacity="null" stroke-width="1.5" stroke="none"/>
  <path id="svg_15" d="m298.503401,333.197279c0,0 47.619048,-38.095238 47.619048,-38.095238" opacity="1" fill-opacity="0.78" stroke-opacity="null" stroke-width="1.5" stroke="none" fill="#ffffff"/>
  <path id="svg_16" d="m344.761905,297.142857" opacity="1" fill-opacity="0.78" stroke-opacity="null" stroke-width="1.5" stroke="none" fill="#ffffff"/>
  <path id="svg_20" d="m352.615385,302.153846c0,0 -4.102564,-8.205128 -4.102564,-8.205128" opacity="1" fill-opacity="0.78" stroke-opacity="null" stroke-width="1.5" stroke="none"/>
  <g id="svg_22">
   <g id="svg_23">
    <g id="svg_24">
     <path fill-opacity="0.78" id="svg_13" d="m393.566168,9.359695c0,0 -29.931973,2.721088 -29.931973,2.721088c0,0 -19.047619,6.122449 -19.047619,6.122449c0,0 -23.129252,11.564626 -23.129252,11.564626c0,0 -38.77551,25.170068 -38.77551,25.170068c0,0 -34.693878,25.170068 -35.23809,24.625856c0.544212,0.544212 -4.897965,7.346933 -4.897965,7.346933c0,0 -23.809524,-1.360544 -23.809524,-1.360544c0,0 -9.52381,-2.721088 -10.068022,-3.2653c0.544213,0.544212 -34.149665,3.2653 -34.149665,3.2653c0,0 -68.707483,10.884354 -68.707483,10.884354c0,0 -48.29932,11.564626 -48.29932,11.564626c0,0 -29.251701,12.92517 -29.251701,12.92517c0,0 -17.687075,12.92517 -18.231291,12.380959c0.544217,0.544211 -0.136056,27.074823 -0.136056,27.074823c0,0 0,23.809524 0,23.809524c0,0 3.401361,17.006803 3.401361,17.006803c0,0 2.040816,25.85034 2.040816,25.85034c0,0 15.646259,8.163265 15.646259,8.163265c0,0 19.727891,4.761905 19.727891,4.761905c0,0 11.564626,-1.360544 11.564626,-1.360544c0,0 14.285714,-7.482993 13.741499,-8.027202c0.544215,0.544209 133.197277,1.224481 133.197277,1.224481c0,0 2.721088,8.163265 2.721088,8.163265c0,0 0,5.442177 0,5.442177c0,0 331.292517,-4.081633 331.292517,-4.081633c0,0 4.081633,-10.204082 4.081633,-10.204082c0,0 10.884354,-4.081633 10.884354,-4.081633c0,0 125.170068,-10.204082 125.170068,-10.204082c0,0 6.122449,6.122449 6.122449,6.122449c0,0 -2.040816,14.965986 -2.040816,14.965986c0,0 28.571429,-4.081633 28.571429,-4.081633c0,0 19.727891,-4.081633 19.727891,-4.081633c0,0 16.326531,-6.122449 16.326531,-6.122449c0,0 -0.680272,-12.92517 -0.680272,-12.92517c0,0 16.326531,-17.687075 16.326531,-17.687075c0,0 5.442177,-10.884354 5.442177,-10.884354c0,0 -1.360544,-9.52381 -1.904746,-10.068019c0.544202,0.54421 -5.578247,-7.619055 -5.578247,-7.619055c0,0 0,-13.605442 0,-13.605442c0,0 2.040816,-16.326531 2.040816,-16.326531c0,0 -2.721088,-17.006803 -2.721088,-17.006803c0,0 -6.122449,-11.564626 -6.122449,-11.564626c0,0 -2.040816,-17.687075 -2.040816,-17.687075c0,0 -1.360544,-12.92517 -1.360544,-12.92517c0,0 -11.564626,-8.843537 -11.564626,-8.843537c0,0 -68.707483,-30.612245 -68.707483,-30.612245c0,0 -4.081633,-7.482993 -4.625837,-8.027206c0.544204,0.544213 8.707469,-13.061229 8.707469,-13.061229c0,0 -8.843537,-3.401361 -8.843537,-3.401361c0,0 -38.095238,-1.360544 -38.095238,-1.360544c0,0 -91.156463,-3.401361 -91.156463,-3.401361c0,0 -94.557823,-1.360544 -94.557823,-1.360544c0,0 -53.061224,4.081633 -53.061224,4.081633z" stroke-width="1.5" stroke="none"/>
    </g>
   </g>
  </g>
 </g>
</svg>